<svg width="32" height="32" viewBox="0 0 32 32" fill="none" xmlns="http://www.w3.org/2000/svg">
<g id="&#226;&#148;&#151; Icon Variant &#225;&#160;&#142;">
<mask id="mask0_2659_25073" style="mask-type:alpha" maskUnits="userSpaceOnUse" x="0" y="0" width="32" height="32">
<rect id="Bounding box" width="32.0001" height="32" fill="#D9D9D9"/>
</mask>
<g mask="url(#mask0_2659_25073)">
<path id="add_photo_alternate" d="M6.42326 28.0001C5.73275 28.0001 5.15625 27.7688 4.69375 27.3063C4.23125 26.8438 4 26.2673 4 25.5768V6.42326C4 5.73275 4.23125 5.15625 4.69375 4.69375C5.15625 4.23125 5.73275 4 6.42326 4H16.9233V5.5H6.42326C6.154 5.5 5.93275 5.5865 5.7595 5.7595C5.5865 5.93275 5.5 6.154 5.5 6.42326V25.5768C5.5 25.846 5.5865 26.0673 5.7595 26.2406C5.93275 26.4136 6.154 26.5 6.42326 26.5H25.5768C25.846 26.5 26.0673 26.4136 26.2406 26.2406C26.4136 26.0673 26.5 25.846 26.5 25.5768V15.0768H28.0001V25.5768C28.0001 26.2673 27.7688 26.8438 27.3063 27.3063C26.8438 27.7688 26.2673 28.0001 25.5768 28.0001H6.42326ZM8.15388 22.5768H23.8462L19 16.1155L14.5 21.7983L11.5 18.1923L8.15388 22.5768ZM23.5 11.5V8.50001H20.5V7.00001H23.5V4H25V7.00001H28.0001V8.50001H25V11.5H23.5Z" fill="#353940" stroke="#353940" stroke-width="0.5"/>
</g>
</g>
</svg>
