<svg width="36" height="36" viewBox="0 0 36 36" fill="none" xmlns="http://www.w3.org/2000/svg">
<mask id="mask0_2348_1018" style="mask-type:alpha" maskUnits="userSpaceOnUse" x="0" y="0" width="36" height="36">
<mask id="mask1_2348_1018" style="mask-type:alpha" maskUnits="userSpaceOnUse" x="0" y="0" width="36" height="36">
<rect width="36.0001" height="36" fill="#D9D9D9"/>
</mask>
<g mask="url(#mask1_2348_1018)">
<path d="M18 31.5001L15.825 29.5501C13.3 27.2751 11.2125 25.3126 9.56251 23.6626C7.91251 22.0126 6.60001 20.5313 5.625 19.2188C4.65 17.9063 3.96875 16.7001 3.58125 15.6001C3.19375 14.5001 3 13.3751 3 12.2251C3 9.8751 3.7875 7.9126 5.3625 6.3376C6.93751 4.7626 8.90001 3.9751 11.25 3.9751C12.55 3.9751 13.7875 4.2501 14.9625 4.8001C16.1375 5.3501 17.15 6.1251 18 7.1251C18.85 6.1251 19.8625 5.3501 21.0375 4.8001C22.2125 4.2501 23.45 3.9751 24.75 3.9751C27.1 3.9751 29.0625 4.7626 30.6376 6.3376C32.2126 7.9126 33.0001 9.8751 33.0001 12.2251C33.0001 13.3751 32.8063 14.5001 32.4188 15.6001C32.0313 16.7001 31.3501 17.9063 30.375 19.2188C29.4 20.5313 28.0875 22.0126 26.4375 23.6626C24.7875 25.3126 22.7 27.2751 20.175 29.5501L18 31.5001Z" fill="#353940"/>
</g>
</mask>
<g mask="url(#mask0_2348_1018)">
<rect width="36" height="36" fill="#DB4747"/>
</g>
</svg>
