<svg width="32" height="32" viewBox="0 0 32 32" fill="none" xmlns="http://www.w3.org/2000/svg">
<g id="&#226;&#148;&#151; Icon Variant &#225;&#160;&#142;">
<mask id="mask0_2659_25085" style="mask-type:alpha" maskUnits="userSpaceOnUse" x="0" y="0" width="33" height="32">
<rect id="Bounding box" x="0.000244141" width="32.0001" height="32" fill="#D9D9D9"/>
</mask>
<g mask="url(#mask0_2659_25085)">
<path id="more_time" d="M14.5166 28C13.0449 28 11.666 27.7253 10.3798 27.176C9.09363 26.6266 7.9694 25.8712 7.00713 24.9098C6.04486 23.9484 5.28882 22.8251 4.73901 21.5398C4.18921 20.2547 3.91431 18.8764 3.91431 17.405C3.91431 15.9333 4.1891 14.5544 4.73868 13.2682C5.28827 11.982 6.04386 10.8578 7.00547 9.8955C7.9673 8.93323 9.09098 8.1772 10.3765 7.62739C11.662 7.07759 13.0409 6.80268 14.513 6.80268C14.9767 6.80268 15.4238 6.83028 15.8544 6.88548C16.2849 6.94069 16.721 7.02349 17.1626 7.13389V8.52496C16.721 8.39248 16.2849 8.29312 15.8544 8.22688C15.4238 8.16064 14.9767 8.12751 14.513 8.12751C11.9415 8.12751 9.75295 9.03028 7.94743 10.8358C6.1419 12.6413 5.23914 14.8298 5.23914 17.4013C5.23914 19.9728 6.1419 22.1614 7.94743 23.9669C9.75295 25.7724 11.9415 26.6752 14.513 26.6752C17.0845 26.6752 19.273 25.7724 21.0785 23.9669C22.884 22.1614 23.7868 19.9714 23.7868 17.397C23.7868 17.157 23.7757 16.9121 23.7537 16.6624C23.7316 16.4127 23.69 16.1664 23.6288 15.9235H24.9689C25.013 16.1326 25.0479 16.3704 25.0735 16.6369C25.0989 16.9036 25.1116 17.1585 25.1116 17.4013C25.1116 18.8735 24.8369 20.2523 24.2876 21.5378C23.7382 22.8233 22.9828 23.947 22.0215 24.9088C21.0601 25.8704 19.9367 26.626 18.6514 27.1756C17.3663 27.7252 15.9881 28 14.5166 28ZM18.6812 22.5069L13.8505 17.6766V10.7772H15.1754V17.1261L19.6185 21.5696L18.6812 22.5069ZM23.7868 13.2738V9.29933H19.8123V7.9745H23.7868V4H25.1116V7.9745H29.0861V9.29933H25.1116V13.2738H23.7868Z" fill="#353940" stroke="#353940" stroke-width="0.5"/>
</g>
</g>
</svg>
