<svg width="32" height="32" viewBox="0 0 32 32" fill="none" xmlns="http://www.w3.org/2000/svg">
<g id="&#226;&#148;&#151; Icon Variant &#225;&#160;&#142;">
<mask id="mask0_2659_25079" style="mask-type:alpha" maskUnits="userSpaceOnUse" x="0" y="0" width="32" height="32">
<rect id="Bounding box" width="32.0001" height="32" fill="#D9D9D9"/>
</mask>
<g mask="url(#mask0_2659_25079)">
<g id="how_to_vote">
<path d="M7.42442 28C6.79312 28 6.26598 27.7885 5.84299 27.3655C5.41999 26.9425 5.2085 26.4154 5.2085 25.7841V21.3886L9.61427 16.4156L10.5931 17.3944L6.63559 21.8794H26.3645L22.4756 17.463L23.4544 16.4841L27.7916 21.3886V25.7841C27.7916 26.4154 27.5801 26.9425 27.1571 27.3655C26.7341 27.7885 26.207 28 25.5757 28H7.42442ZM7.42442 26.6281H25.5757C25.8043 26.6281 26.0021 26.5446 26.169 26.3774C26.3362 26.2105 26.4197 26.0127 26.4197 25.7841V23.2513H6.58037V25.7841C6.58037 26.0127 6.66394 26.2105 6.83108 26.3774C6.99799 26.5446 7.19577 26.6281 7.42442 26.6281ZM14.9831 17.9617L10.886 13.8117C10.4479 13.3736 10.2346 12.8509 10.246 12.2433C10.2574 11.6356 10.4822 11.1128 10.9203 10.6749L16.9301 4.66511C17.368 4.22702 17.8877 4.00535 18.4893 4.00009C19.0908 3.99483 19.6105 4.21113 20.0484 4.64899L24.1719 8.77284C24.61 9.2107 24.8317 9.72778 24.8369 10.3241C24.8422 10.9202 24.6258 11.4373 24.1877 11.8753L18.0935 17.9695C17.6556 18.4074 17.1373 18.6251 16.5385 18.6226C15.9394 18.6198 15.421 18.3995 14.9831 17.9617ZM23.1749 10.9387C23.3155 10.7981 23.3858 10.5958 23.3858 10.332C23.3858 10.0681 23.3155 9.86577 23.1749 9.72492L19.1039 5.65423C18.9632 5.51361 18.761 5.4433 18.4972 5.4433C18.2333 5.4433 18.0311 5.51361 17.8904 5.65423L11.8648 11.6798C11.724 11.8207 11.6536 12.023 11.6536 12.2869C11.6536 12.5508 11.724 12.753 11.8648 12.8936L15.9355 16.9643C16.0761 17.1051 16.2784 17.1756 16.5422 17.1756C16.8061 17.1756 17.0083 17.1051 17.1489 16.9643L23.1749 10.9387Z" fill="#353940"/>
<path d="M6.58037 23.2513H26.4197V25.7841C26.4197 26.0127 26.3362 26.2105 26.169 26.3774C26.0021 26.5446 25.8043 26.6281 25.5757 26.6281H7.42442C7.19577 26.6281 6.99799 26.5446 6.83108 26.3774C6.66394 26.2105 6.58037 26.0127 6.58037 25.7841V23.2513ZM6.58037 23.2513V26.6281M7.42442 28C6.79312 28 6.26598 27.7885 5.84299 27.3655C5.41999 26.9425 5.2085 26.4154 5.2085 25.7841V21.3886L9.61427 16.4156L10.5931 17.3944L6.63559 21.8794H26.3645L22.4756 17.463L23.4544 16.4841L27.7916 21.3886V25.7841C27.7916 26.4154 27.5801 26.9425 27.1571 27.3655C26.7341 27.7885 26.207 28 25.5757 28H7.42442ZM14.9831 17.9617L10.886 13.8117C10.4479 13.3736 10.2346 12.8509 10.246 12.2433C10.2574 11.6356 10.4822 11.1128 10.9203 10.6749L16.9301 4.66511C17.368 4.22702 17.8877 4.00535 18.4893 4.00009C19.0908 3.99483 19.6105 4.21113 20.0484 4.64899L24.1719 8.77284C24.61 9.2107 24.8317 9.72778 24.8369 10.3241C24.8422 10.9202 24.6258 11.4373 24.1877 11.8753L18.0935 17.9695C17.6556 18.4074 17.1373 18.6251 16.5385 18.6226C15.9394 18.6198 15.421 18.3995 14.9831 17.9617ZM23.1749 10.9387C23.3155 10.7981 23.3858 10.5958 23.3858 10.332C23.3858 10.0681 23.3155 9.86577 23.1749 9.72492L19.1039 5.65423C18.9632 5.51361 18.761 5.4433 18.4972 5.4433C18.2333 5.4433 18.0311 5.51361 17.8904 5.65423L11.8648 11.6798C11.724 11.8207 11.6536 12.023 11.6536 12.2869C11.6536 12.5508 11.724 12.753 11.8648 12.8936L15.9355 16.9643C16.0761 17.1051 16.2784 17.1756 16.5422 17.1756C16.8061 17.1756 17.0083 17.1051 17.1489 16.9643L23.1749 10.9387Z" stroke="#353940" stroke-width="0.5"/>
</g>
</g>
</g>
</svg>
